<?xml version="1.0" encoding="utf-8"?>
<!-- Generator: Adobe Illustrator 26.0.1, SVG Export Plug-In . SVG Version: 6.00 Build 0)  -->
<svg version="1.1" id="Layer_1" xmlns="http://www.w3.org/2000/svg" xmlns:xlink="http://www.w3.org/1999/xlink" x="0px" y="0px"
	 viewBox="0 0 29 29" style="enable-background:new 0 0 29 29;" xml:space="preserve">
<style type="text/css">
	.st0{fill-rule:evenodd;clip-rule:evenodd;fill:#CCCCCC;}
</style>
<g>
	<g>
		<path class="st0" d="M20.3,17.8l2.9,2.9c0,0,0.1,0.1,0.1,0.1H27c0.8,0,1.5-0.7,1.5-1.5c0-0.8-0.7-1.5-1.5-1.5H20.3z M20.1,8.8
			c-0.4-1.1-1-2.1-1.8-3H27c0.8,0,1.5,0.7,1.5,1.5S27.8,8.8,27,8.8H20.1z M20.9,12.8c0-0.3,0-0.7,0-1H27c0.8,0,1.5,0.7,1.5,1.5
			c0,0.8-0.7,1.5-1.5,1.5h-6.3C20.8,14.2,20.9,13.5,20.9,12.8z"/>
		<path class="st0" d="M4.4,12.8c0-3,2.5-5.5,5.5-5.5c3,0,5.5,2.5,5.5,5.5c0,3-2.5,5.5-5.5,5.5C6.9,18.3,4.4,15.9,4.4,12.8z
			 M0.9,12.8c0-5,4-9,9-9c5,0,9,4,9,9c0,1.4-0.3,2.6-0.8,3.8c-0.3,0.7-0.3,1.6,0.3,2.1l3.4,3.4c0.6,0.6,0.6,1.6,0,2.2
			c-0.6,0.6-1.6,0.6-2.2,0L16.2,21c-0.6-0.6-1.5-0.6-2.2-0.2c-1.2,0.6-2.6,1-4.1,1C4.9,21.8,0.9,17.8,0.9,12.8z"/>
	</g>
</g>
</svg>
